<mxfile host="app.diagrams.net" agent="Mozilla/5.0 (Macintosh; Intel Mac OS X 10_15_7) AppleWebKit/537.36 (KHTML, like Gecko) Chrome/134.0.0.0 Safari/537.36" version="26.1.1">
  <diagram id="DHt9ZMiTIaIE02qvRX9q" name="第 1 页">
    <mxGraphModel dx="1434" dy="1954" grid="1" gridSize="10" guides="1" tooltips="1" connect="1" arrows="1" fold="1" page="1" pageScale="1" pageWidth="827" pageHeight="1169" math="0" shadow="0">
      <root>
        <mxCell id="0" />
        <mxCell id="1" parent="0" />
        <mxCell id="2" value="" style="rounded=0;whiteSpace=wrap;html=1;strokeWidth=2;fontFamily=宋体;fontSize=24;" parent="1" vertex="1">
          <mxGeometry x="130" y="-740" width="770" height="408.5" as="geometry" />
        </mxCell>
        <mxCell id="zeIqeqDCH-F1ztGzaZG--183" style="edgeStyle=orthogonalEdgeStyle;rounded=0;orthogonalLoop=1;jettySize=auto;html=1;exitX=1;exitY=0.5;exitDx=0;exitDy=0;entryX=1;entryY=0.5;entryDx=0;entryDy=0;strokeWidth=2;" parent="1" source="6" target="zeIqeqDCH-F1ztGzaZG--96" edge="1">
          <mxGeometry relative="1" as="geometry" />
        </mxCell>
        <mxCell id="zeIqeqDCH-F1ztGzaZG--184" style="edgeStyle=orthogonalEdgeStyle;rounded=0;orthogonalLoop=1;jettySize=auto;html=1;exitX=0;exitY=0.5;exitDx=0;exitDy=0;entryX=0;entryY=0.5;entryDx=0;entryDy=0;strokeWidth=2;" parent="1" source="6" target="zeIqeqDCH-F1ztGzaZG--91" edge="1">
          <mxGeometry relative="1" as="geometry" />
        </mxCell>
        <mxCell id="6" value="接口" style="rounded=0;whiteSpace=wrap;html=1;strokeWidth=2;fontFamily=宋体;fontSize=24;" parent="1" vertex="1">
          <mxGeometry x="169.92" y="-720" width="680" height="38" as="geometry" />
        </mxCell>
        <mxCell id="GP_2m2FubImY15Z5l0kA-69" value="中断处理" style="rounded=0;whiteSpace=wrap;html=1;strokeWidth=2;fontFamily=宋体;fontSize=24;" parent="1" vertex="1">
          <mxGeometry x="170" y="-390" width="680" height="38" as="geometry" />
        </mxCell>
        <mxCell id="GP_2m2FubImY15Z5l0kA-84" value="" style="group;fillColor=none;" parent="1" vertex="1" connectable="0">
          <mxGeometry x="500" y="-350.5" width="26" height="43" as="geometry" />
        </mxCell>
        <mxCell id="GP_2m2FubImY15Z5l0kA-85" value="" style="endArrow=open;html=1;strokeWidth=2;fontFamily=宋体;fontSize=24;entryX=0.245;entryY=-0.005;entryDx=0;entryDy=0;entryPerimeter=0;rounded=0;endFill=0;strokeColor=#666666;" parent="GP_2m2FubImY15Z5l0kA-84" edge="1">
          <mxGeometry width="50" height="50" relative="1" as="geometry">
            <mxPoint y="43" as="sourcePoint" />
            <mxPoint as="targetPoint" />
          </mxGeometry>
        </mxCell>
        <mxCell id="GP_2m2FubImY15Z5l0kA-86" value="" style="endArrow=open;html=1;strokeWidth=2;fontFamily=宋体;fontSize=24;entryX=0.224;entryY=-0.006;entryDx=0;entryDy=0;entryPerimeter=0;rounded=0;endFill=0;strokeColor=#666666;" parent="GP_2m2FubImY15Z5l0kA-84" edge="1">
          <mxGeometry width="50" height="50" relative="1" as="geometry">
            <mxPoint x="13" y="43" as="sourcePoint" />
            <mxPoint x="13" as="targetPoint" />
          </mxGeometry>
        </mxCell>
        <mxCell id="GP_2m2FubImY15Z5l0kA-87" value="" style="endArrow=open;html=1;strokeWidth=2;fontFamily=宋体;fontSize=24;entryX=0.203;entryY=-0.005;entryDx=0;entryDy=0;exitX=0.625;exitY=1.001;exitDx=0;exitDy=0;entryPerimeter=0;exitPerimeter=0;rounded=0;endFill=0;strokeColor=#666666;" parent="GP_2m2FubImY15Z5l0kA-84" edge="1">
          <mxGeometry width="50" height="50" relative="1" as="geometry">
            <mxPoint x="26" y="43" as="sourcePoint" />
            <mxPoint x="26" as="targetPoint" />
          </mxGeometry>
        </mxCell>
        <mxCell id="GP_2m2FubImY15Z5l0kA-114" value="" style="endArrow=none;html=1;rounded=0;strokeWidth=2;dashed=1;strokeColor=#666666;" parent="1" edge="1">
          <mxGeometry width="50" height="50" relative="1" as="geometry">
            <mxPoint x="128" y="-830" as="sourcePoint" />
            <mxPoint x="898" y="-830.3399999999999" as="targetPoint" />
          </mxGeometry>
        </mxCell>
        <mxCell id="GP_2m2FubImY15Z5l0kA-165" value="&lt;font style=&quot;font-size: 24px;&quot; face=&quot;Times New Roman&quot;&gt;TAIC&lt;/font&gt;" style="text;html=1;align=center;verticalAlign=middle;resizable=0;points=[];autosize=1;strokeColor=none;fillColor=none;" parent="1" vertex="1">
          <mxGeometry x="945.5" y="-555.75" width="80" height="40" as="geometry" />
        </mxCell>
        <mxCell id="GP_2m2FubImY15Z5l0kA-167" value="&lt;font face=&quot;宋体&quot; style=&quot;font-size: 24px;&quot;&gt;外部设备&lt;/font&gt;" style="text;html=1;align=center;verticalAlign=middle;resizable=0;points=[];autosize=1;strokeColor=none;fillColor=none;" parent="1" vertex="1">
          <mxGeometry x="930.5" y="-299.5" width="120" height="40" as="geometry" />
        </mxCell>
        <mxCell id="mDuoX1Sw4fGfqt7fVJSs-59" value="" style="rounded=0;whiteSpace=wrap;html=1;strokeWidth=2;fontFamily=宋体;fontSize=24;container=0;" parent="1" vertex="1">
          <mxGeometry x="130.24" y="-305.5" width="769.76" height="64" as="geometry" />
        </mxCell>
        <mxCell id="mDuoX1Sw4fGfqt7fVJSs-66" value="网卡" style="rounded=0;whiteSpace=wrap;html=1;strokeWidth=2;fontFamily=宋体;fontSize=24;container=0;" parent="1" vertex="1">
          <mxGeometry x="141.43548387096774" y="-289.5" width="149.2258064516129" height="30" as="geometry" />
        </mxCell>
        <mxCell id="mDuoX1Sw4fGfqt7fVJSs-75" value="存储器" style="rounded=0;whiteSpace=wrap;html=1;strokeWidth=2;fontFamily=宋体;fontSize=24;container=0;" parent="1" vertex="1">
          <mxGeometry x="340.40322580645164" y="-289.5" width="149.2258064516129" height="30" as="geometry" />
        </mxCell>
        <mxCell id="mDuoX1Sw4fGfqt7fVJSs-76" value="其他设备" style="rounded=0;whiteSpace=wrap;html=1;strokeWidth=2;fontFamily=宋体;fontSize=24;container=0;" parent="1" vertex="1">
          <mxGeometry x="738.3387096774193" y="-289.5" width="149.2258064516129" height="30" as="geometry" />
        </mxCell>
        <mxCell id="mDuoX1Sw4fGfqt7fVJSs-139" value="定时器" style="rounded=0;whiteSpace=wrap;html=1;strokeWidth=2;fontFamily=宋体;fontSize=24;container=0;" parent="1" vertex="1">
          <mxGeometry x="539.3709677419356" y="-289.5" width="149.2258064516129" height="30" as="geometry" />
        </mxCell>
        <mxCell id="GP_2m2FubImY15Z5l0kA-169" value="" style="shape=curlyBracket;whiteSpace=wrap;html=1;rounded=1;flipH=1;labelPosition=right;verticalLabelPosition=middle;align=left;verticalAlign=middle;strokeWidth=2;" parent="1" vertex="1">
          <mxGeometry x="930.5" y="-740" width="20" height="408.5" as="geometry" />
        </mxCell>
        <mxCell id="GP_2m2FubImY15Z5l0kA-172" value="&lt;font face=&quot;宋体&quot; style=&quot;font-size: 24px;&quot;&gt;用户态&lt;/font&gt;" style="text;html=1;align=center;verticalAlign=middle;resizable=0;points=[];autosize=1;strokeColor=none;fillColor=none;" parent="1" vertex="1">
          <mxGeometry x="840.8299999999999" y="-900" width="100" height="40" as="geometry" />
        </mxCell>
        <mxCell id="GP_2m2FubImY15Z5l0kA-204" value="&lt;font face=&quot;宋体&quot; style=&quot;font-size: 24px;&quot;&gt;内核态&lt;/font&gt;" style="text;html=1;align=center;verticalAlign=middle;resizable=0;points=[];autosize=1;strokeColor=none;fillColor=none;" parent="1" vertex="1">
          <mxGeometry x="840" y="-800" width="100" height="40" as="geometry" />
        </mxCell>
        <mxCell id="YLnGFqwV-hSvkrgjc1EF-27" value="&lt;span style=&quot;font-size: 24px;&quot;&gt;&lt;font face=&quot;宋体&quot;&gt;跳板&lt;/font&gt;&lt;/span&gt;" style="rounded=0;whiteSpace=wrap;html=1;strokeWidth=2;fillColor=#BBBBBB;strokeColor=#666666;fontColor=#333333;" parent="1" vertex="1">
          <mxGeometry x="190" y="-850" width="650" height="38" as="geometry" />
        </mxCell>
        <mxCell id="6C-AW-Vsd9dx6HvMhZMS-36" value="" style="shape=curlyBracket;whiteSpace=wrap;html=1;rounded=1;flipH=1;labelPosition=right;verticalLabelPosition=middle;align=left;verticalAlign=middle;strokeWidth=2;" parent="1" vertex="1">
          <mxGeometry x="930.5" y="-900" width="20" height="150" as="geometry" />
        </mxCell>
        <mxCell id="6C-AW-Vsd9dx6HvMhZMS-37" value="&lt;font face=&quot;宋体&quot; style=&quot;font-size: 24px;&quot;&gt;软件&lt;/font&gt;" style="text;html=1;align=center;verticalAlign=middle;resizable=0;points=[];autosize=1;strokeColor=none;fillColor=none;" parent="1" vertex="1">
          <mxGeometry x="950.5" y="-845" width="70" height="40" as="geometry" />
        </mxCell>
        <mxCell id="zeIqeqDCH-F1ztGzaZG--91" value="&lt;font style=&quot;font-size: 24px;&quot; face=&quot;宋体&quot;&gt;发送能力表&lt;/font&gt;" style="rounded=0;whiteSpace=wrap;html=1;strokeWidth=2;" parent="1" vertex="1">
          <mxGeometry x="170" y="-469" width="319" height="38" as="geometry" />
        </mxCell>
        <mxCell id="zeIqeqDCH-F1ztGzaZG--96" value="&lt;font style=&quot;font-size: 24px;&quot; face=&quot;宋体&quot;&gt;接收能力表&lt;/font&gt;" style="rounded=0;whiteSpace=wrap;html=1;strokeWidth=2;" parent="1" vertex="1">
          <mxGeometry x="537" y="-469" width="313" height="38" as="geometry" />
        </mxCell>
        <mxCell id="zeIqeqDCH-F1ztGzaZG--97" value="" style="group;fillColor=none;" parent="1" vertex="1" connectable="0">
          <mxGeometry x="694" y="-430" width="26" height="40" as="geometry" />
        </mxCell>
        <mxCell id="zeIqeqDCH-F1ztGzaZG--98" value="" style="endArrow=open;html=1;strokeWidth=2;fontFamily=宋体;fontSize=24;entryX=0.245;entryY=-0.005;entryDx=0;entryDy=0;entryPerimeter=0;rounded=0;endFill=0;strokeColor=#666666;" parent="zeIqeqDCH-F1ztGzaZG--97" edge="1">
          <mxGeometry width="50" height="50" relative="1" as="geometry">
            <mxPoint y="40" as="sourcePoint" />
            <mxPoint as="targetPoint" />
          </mxGeometry>
        </mxCell>
        <mxCell id="zeIqeqDCH-F1ztGzaZG--99" value="" style="endArrow=open;html=1;strokeWidth=2;fontFamily=宋体;fontSize=24;entryX=0.224;entryY=-0.006;entryDx=0;entryDy=0;entryPerimeter=0;rounded=0;endFill=0;strokeColor=#666666;" parent="zeIqeqDCH-F1ztGzaZG--97" edge="1">
          <mxGeometry width="50" height="50" relative="1" as="geometry">
            <mxPoint x="13" y="40" as="sourcePoint" />
            <mxPoint x="13" as="targetPoint" />
          </mxGeometry>
        </mxCell>
        <mxCell id="zeIqeqDCH-F1ztGzaZG--100" value="" style="endArrow=open;html=1;strokeWidth=2;fontFamily=宋体;fontSize=24;entryX=0.203;entryY=-0.005;entryDx=0;entryDy=0;exitX=0.625;exitY=1.001;exitDx=0;exitDy=0;entryPerimeter=0;exitPerimeter=0;rounded=0;endFill=0;strokeColor=#666666;" parent="zeIqeqDCH-F1ztGzaZG--97" edge="1">
          <mxGeometry width="50" height="50" relative="1" as="geometry">
            <mxPoint x="26" y="40" as="sourcePoint" />
            <mxPoint x="26" as="targetPoint" />
          </mxGeometry>
        </mxCell>
        <mxCell id="zeIqeqDCH-F1ztGzaZG--101" value="" style="group;fillColor=none;rotation=-180;" parent="1" vertex="1" connectable="0">
          <mxGeometry x="306" y="-430" width="26" height="40" as="geometry" />
        </mxCell>
        <mxCell id="zeIqeqDCH-F1ztGzaZG--102" value="" style="endArrow=open;html=1;strokeWidth=2;fontFamily=宋体;fontSize=24;entryX=0.245;entryY=-0.005;entryDx=0;entryDy=0;entryPerimeter=0;rounded=0;endFill=0;strokeColor=#666666;" parent="zeIqeqDCH-F1ztGzaZG--101" edge="1">
          <mxGeometry width="50" height="50" relative="1" as="geometry">
            <mxPoint x="26" as="sourcePoint" />
            <mxPoint x="26" y="40" as="targetPoint" />
          </mxGeometry>
        </mxCell>
        <mxCell id="zeIqeqDCH-F1ztGzaZG--103" value="" style="endArrow=open;html=1;strokeWidth=2;fontFamily=宋体;fontSize=24;entryX=0.224;entryY=-0.006;entryDx=0;entryDy=0;entryPerimeter=0;rounded=0;endFill=0;strokeColor=#666666;" parent="zeIqeqDCH-F1ztGzaZG--101" edge="1">
          <mxGeometry width="50" height="50" relative="1" as="geometry">
            <mxPoint x="13" as="sourcePoint" />
            <mxPoint x="13" y="40" as="targetPoint" />
          </mxGeometry>
        </mxCell>
        <mxCell id="zeIqeqDCH-F1ztGzaZG--104" value="" style="endArrow=open;html=1;strokeWidth=2;fontFamily=宋体;fontSize=24;entryX=0.203;entryY=-0.005;entryDx=0;entryDy=0;exitX=0.625;exitY=1.001;exitDx=0;exitDy=0;entryPerimeter=0;exitPerimeter=0;rounded=0;endFill=0;strokeColor=#666666;" parent="zeIqeqDCH-F1ztGzaZG--101" edge="1">
          <mxGeometry width="50" height="50" relative="1" as="geometry">
            <mxPoint as="sourcePoint" />
            <mxPoint y="40" as="targetPoint" />
          </mxGeometry>
        </mxCell>
        <mxCell id="zeIqeqDCH-F1ztGzaZG--70" value="" style="rounded=0;whiteSpace=wrap;html=1;strokeWidth=2;fillColor=#BBBBBB;fontColor=#333333;strokeColor=#666666;" parent="1" vertex="1">
          <mxGeometry x="170" y="-671.5" width="680" height="170" as="geometry" />
        </mxCell>
        <mxCell id="zeIqeqDCH-F1ztGzaZG--22" value="" style="shape=table;startSize=0;container=1;collapsible=0;childLayout=tableLayout;strokeWidth=2;" parent="1" vertex="1">
          <mxGeometry x="183.93" y="-641.5" width="60" height="100" as="geometry" />
        </mxCell>
        <mxCell id="zeIqeqDCH-F1ztGzaZG--23" value="" style="shape=tableRow;horizontal=0;startSize=0;swimlaneHead=0;swimlaneBody=0;strokeColor=inherit;top=0;left=0;bottom=0;right=0;collapsible=0;dropTarget=0;fillColor=none;points=[[0,0.5],[1,0.5]];portConstraint=eastwest;" parent="zeIqeqDCH-F1ztGzaZG--22" vertex="1">
          <mxGeometry width="60" height="20" as="geometry" />
        </mxCell>
        <mxCell id="zeIqeqDCH-F1ztGzaZG--24" value="" style="shape=partialRectangle;html=1;whiteSpace=wrap;connectable=0;strokeColor=inherit;overflow=hidden;fillColor=none;top=0;left=0;bottom=0;right=0;pointerEvents=1;" parent="zeIqeqDCH-F1ztGzaZG--23" vertex="1">
          <mxGeometry width="60" height="20" as="geometry">
            <mxRectangle width="60" height="20" as="alternateBounds" />
          </mxGeometry>
        </mxCell>
        <mxCell id="zeIqeqDCH-F1ztGzaZG--25" value="" style="shape=tableRow;horizontal=0;startSize=0;swimlaneHead=0;swimlaneBody=0;strokeColor=inherit;top=0;left=0;bottom=0;right=0;collapsible=0;dropTarget=0;fillColor=none;points=[[0,0.5],[1,0.5]];portConstraint=eastwest;" parent="zeIqeqDCH-F1ztGzaZG--22" vertex="1">
          <mxGeometry y="20" width="60" height="20" as="geometry" />
        </mxCell>
        <mxCell id="zeIqeqDCH-F1ztGzaZG--26" value="" style="shape=partialRectangle;html=1;whiteSpace=wrap;connectable=0;strokeColor=inherit;overflow=hidden;fillColor=none;top=0;left=0;bottom=0;right=0;pointerEvents=1;" parent="zeIqeqDCH-F1ztGzaZG--25" vertex="1">
          <mxGeometry width="60" height="20" as="geometry">
            <mxRectangle width="60" height="20" as="alternateBounds" />
          </mxGeometry>
        </mxCell>
        <mxCell id="zeIqeqDCH-F1ztGzaZG--27" value="" style="shape=tableRow;horizontal=0;startSize=0;swimlaneHead=0;swimlaneBody=0;strokeColor=inherit;top=0;left=0;bottom=0;right=0;collapsible=0;dropTarget=0;fillColor=none;points=[[0,0.5],[1,0.5]];portConstraint=eastwest;" parent="zeIqeqDCH-F1ztGzaZG--22" vertex="1">
          <mxGeometry y="40" width="60" height="20" as="geometry" />
        </mxCell>
        <mxCell id="zeIqeqDCH-F1ztGzaZG--28" value="" style="shape=partialRectangle;html=1;whiteSpace=wrap;connectable=0;strokeColor=inherit;overflow=hidden;fillColor=none;top=0;left=0;bottom=0;right=0;pointerEvents=1;" parent="zeIqeqDCH-F1ztGzaZG--27" vertex="1">
          <mxGeometry width="60" height="20" as="geometry">
            <mxRectangle width="60" height="20" as="alternateBounds" />
          </mxGeometry>
        </mxCell>
        <mxCell id="zeIqeqDCH-F1ztGzaZG--29" value="" style="shape=tableRow;horizontal=0;startSize=0;swimlaneHead=0;swimlaneBody=0;strokeColor=inherit;top=0;left=0;bottom=0;right=0;collapsible=0;dropTarget=0;fillColor=none;points=[[0,0.5],[1,0.5]];portConstraint=eastwest;" parent="zeIqeqDCH-F1ztGzaZG--22" vertex="1">
          <mxGeometry y="60" width="60" height="20" as="geometry" />
        </mxCell>
        <mxCell id="zeIqeqDCH-F1ztGzaZG--30" value="" style="shape=partialRectangle;html=1;whiteSpace=wrap;connectable=0;strokeColor=inherit;overflow=hidden;fillColor=none;top=0;left=0;bottom=0;right=0;pointerEvents=1;" parent="zeIqeqDCH-F1ztGzaZG--29" vertex="1">
          <mxGeometry width="60" height="20" as="geometry">
            <mxRectangle width="60" height="20" as="alternateBounds" />
          </mxGeometry>
        </mxCell>
        <mxCell id="zeIqeqDCH-F1ztGzaZG--31" value="" style="shape=tableRow;horizontal=0;startSize=0;swimlaneHead=0;swimlaneBody=0;strokeColor=inherit;top=0;left=0;bottom=0;right=0;collapsible=0;dropTarget=0;fillColor=none;points=[[0,0.5],[1,0.5]];portConstraint=eastwest;" parent="zeIqeqDCH-F1ztGzaZG--22" vertex="1">
          <mxGeometry y="80" width="60" height="20" as="geometry" />
        </mxCell>
        <mxCell id="zeIqeqDCH-F1ztGzaZG--32" value="" style="shape=partialRectangle;html=1;whiteSpace=wrap;connectable=0;strokeColor=inherit;overflow=hidden;fillColor=none;top=0;left=0;bottom=0;right=0;pointerEvents=1;" parent="zeIqeqDCH-F1ztGzaZG--31" vertex="1">
          <mxGeometry width="60" height="20" as="geometry">
            <mxRectangle width="60" height="20" as="alternateBounds" />
          </mxGeometry>
        </mxCell>
        <mxCell id="zeIqeqDCH-F1ztGzaZG--130" style="rounded=0;orthogonalLoop=1;jettySize=auto;html=1;exitX=0.5;exitY=0;exitDx=0;exitDy=0;strokeWidth=2;startArrow=classic;startFill=1;entryX=0.357;entryY=1.011;entryDx=0;entryDy=0;entryPerimeter=0;" parent="1" source="zeIqeqDCH-F1ztGzaZG--33" target="6" edge="1">
          <mxGeometry relative="1" as="geometry">
            <mxPoint x="413" y="-680" as="targetPoint" />
          </mxGeometry>
        </mxCell>
        <mxCell id="zeIqeqDCH-F1ztGzaZG--33" value="" style="shape=table;startSize=0;container=1;collapsible=0;childLayout=tableLayout;strokeWidth=2;" parent="1" vertex="1">
          <mxGeometry x="382.9" y="-641.5" width="60" height="100" as="geometry" />
        </mxCell>
        <mxCell id="zeIqeqDCH-F1ztGzaZG--34" value="" style="shape=tableRow;horizontal=0;startSize=0;swimlaneHead=0;swimlaneBody=0;strokeColor=inherit;top=0;left=0;bottom=0;right=0;collapsible=0;dropTarget=0;fillColor=none;points=[[0,0.5],[1,0.5]];portConstraint=eastwest;" parent="zeIqeqDCH-F1ztGzaZG--33" vertex="1">
          <mxGeometry width="60" height="20" as="geometry" />
        </mxCell>
        <mxCell id="zeIqeqDCH-F1ztGzaZG--35" value="" style="shape=partialRectangle;html=1;whiteSpace=wrap;connectable=0;strokeColor=inherit;overflow=hidden;fillColor=none;top=0;left=0;bottom=0;right=0;pointerEvents=1;" parent="zeIqeqDCH-F1ztGzaZG--34" vertex="1">
          <mxGeometry width="60" height="20" as="geometry">
            <mxRectangle width="60" height="20" as="alternateBounds" />
          </mxGeometry>
        </mxCell>
        <mxCell id="zeIqeqDCH-F1ztGzaZG--36" value="" style="shape=tableRow;horizontal=0;startSize=0;swimlaneHead=0;swimlaneBody=0;strokeColor=inherit;top=0;left=0;bottom=0;right=0;collapsible=0;dropTarget=0;fillColor=none;points=[[0,0.5],[1,0.5]];portConstraint=eastwest;" parent="zeIqeqDCH-F1ztGzaZG--33" vertex="1">
          <mxGeometry y="20" width="60" height="20" as="geometry" />
        </mxCell>
        <mxCell id="zeIqeqDCH-F1ztGzaZG--37" value="" style="shape=partialRectangle;html=1;whiteSpace=wrap;connectable=0;strokeColor=inherit;overflow=hidden;fillColor=none;top=0;left=0;bottom=0;right=0;pointerEvents=1;" parent="zeIqeqDCH-F1ztGzaZG--36" vertex="1">
          <mxGeometry width="60" height="20" as="geometry">
            <mxRectangle width="60" height="20" as="alternateBounds" />
          </mxGeometry>
        </mxCell>
        <mxCell id="zeIqeqDCH-F1ztGzaZG--38" value="" style="shape=tableRow;horizontal=0;startSize=0;swimlaneHead=0;swimlaneBody=0;strokeColor=inherit;top=0;left=0;bottom=0;right=0;collapsible=0;dropTarget=0;fillColor=none;points=[[0,0.5],[1,0.5]];portConstraint=eastwest;" parent="zeIqeqDCH-F1ztGzaZG--33" vertex="1">
          <mxGeometry y="40" width="60" height="20" as="geometry" />
        </mxCell>
        <mxCell id="zeIqeqDCH-F1ztGzaZG--39" value="" style="shape=partialRectangle;html=1;whiteSpace=wrap;connectable=0;strokeColor=inherit;overflow=hidden;fillColor=none;top=0;left=0;bottom=0;right=0;pointerEvents=1;" parent="zeIqeqDCH-F1ztGzaZG--38" vertex="1">
          <mxGeometry width="60" height="20" as="geometry">
            <mxRectangle width="60" height="20" as="alternateBounds" />
          </mxGeometry>
        </mxCell>
        <mxCell id="zeIqeqDCH-F1ztGzaZG--40" value="" style="shape=tableRow;horizontal=0;startSize=0;swimlaneHead=0;swimlaneBody=0;strokeColor=inherit;top=0;left=0;bottom=0;right=0;collapsible=0;dropTarget=0;fillColor=none;points=[[0,0.5],[1,0.5]];portConstraint=eastwest;" parent="zeIqeqDCH-F1ztGzaZG--33" vertex="1">
          <mxGeometry y="60" width="60" height="20" as="geometry" />
        </mxCell>
        <mxCell id="zeIqeqDCH-F1ztGzaZG--41" value="" style="shape=partialRectangle;html=1;whiteSpace=wrap;connectable=0;strokeColor=inherit;overflow=hidden;fillColor=none;top=0;left=0;bottom=0;right=0;pointerEvents=1;" parent="zeIqeqDCH-F1ztGzaZG--40" vertex="1">
          <mxGeometry width="60" height="20" as="geometry">
            <mxRectangle width="60" height="20" as="alternateBounds" />
          </mxGeometry>
        </mxCell>
        <mxCell id="zeIqeqDCH-F1ztGzaZG--42" value="" style="shape=tableRow;horizontal=0;startSize=0;swimlaneHead=0;swimlaneBody=0;strokeColor=inherit;top=0;left=0;bottom=0;right=0;collapsible=0;dropTarget=0;fillColor=none;points=[[0,0.5],[1,0.5]];portConstraint=eastwest;" parent="zeIqeqDCH-F1ztGzaZG--33" vertex="1">
          <mxGeometry y="80" width="60" height="20" as="geometry" />
        </mxCell>
        <mxCell id="zeIqeqDCH-F1ztGzaZG--43" value="" style="shape=partialRectangle;html=1;whiteSpace=wrap;connectable=0;strokeColor=inherit;overflow=hidden;fillColor=none;top=0;left=0;bottom=0;right=0;pointerEvents=1;" parent="zeIqeqDCH-F1ztGzaZG--42" vertex="1">
          <mxGeometry width="60" height="20" as="geometry">
            <mxRectangle width="60" height="20" as="alternateBounds" />
          </mxGeometry>
        </mxCell>
        <mxCell id="zeIqeqDCH-F1ztGzaZG--131" style="rounded=0;orthogonalLoop=1;jettySize=auto;html=1;exitX=0.5;exitY=0;exitDx=0;exitDy=0;entryX=0.65;entryY=1.009;entryDx=0;entryDy=0;strokeWidth=2;startArrow=classic;startFill=1;entryPerimeter=0;" parent="1" source="zeIqeqDCH-F1ztGzaZG--44" target="6" edge="1">
          <mxGeometry relative="1" as="geometry" />
        </mxCell>
        <mxCell id="zeIqeqDCH-F1ztGzaZG--44" value="" style="shape=table;startSize=0;container=1;collapsible=0;childLayout=tableLayout;strokeWidth=2;" parent="1" vertex="1">
          <mxGeometry x="581.86" y="-641.5" width="60" height="100" as="geometry" />
        </mxCell>
        <mxCell id="zeIqeqDCH-F1ztGzaZG--45" value="" style="shape=tableRow;horizontal=0;startSize=0;swimlaneHead=0;swimlaneBody=0;strokeColor=inherit;top=0;left=0;bottom=0;right=0;collapsible=0;dropTarget=0;fillColor=none;points=[[0,0.5],[1,0.5]];portConstraint=eastwest;" parent="zeIqeqDCH-F1ztGzaZG--44" vertex="1">
          <mxGeometry width="60" height="20" as="geometry" />
        </mxCell>
        <mxCell id="zeIqeqDCH-F1ztGzaZG--46" value="" style="shape=partialRectangle;html=1;whiteSpace=wrap;connectable=0;strokeColor=inherit;overflow=hidden;fillColor=none;top=0;left=0;bottom=0;right=0;pointerEvents=1;" parent="zeIqeqDCH-F1ztGzaZG--45" vertex="1">
          <mxGeometry width="60" height="20" as="geometry">
            <mxRectangle width="60" height="20" as="alternateBounds" />
          </mxGeometry>
        </mxCell>
        <mxCell id="zeIqeqDCH-F1ztGzaZG--47" value="" style="shape=tableRow;horizontal=0;startSize=0;swimlaneHead=0;swimlaneBody=0;strokeColor=inherit;top=0;left=0;bottom=0;right=0;collapsible=0;dropTarget=0;fillColor=none;points=[[0,0.5],[1,0.5]];portConstraint=eastwest;" parent="zeIqeqDCH-F1ztGzaZG--44" vertex="1">
          <mxGeometry y="20" width="60" height="20" as="geometry" />
        </mxCell>
        <mxCell id="zeIqeqDCH-F1ztGzaZG--48" value="" style="shape=partialRectangle;html=1;whiteSpace=wrap;connectable=0;strokeColor=inherit;overflow=hidden;fillColor=none;top=0;left=0;bottom=0;right=0;pointerEvents=1;" parent="zeIqeqDCH-F1ztGzaZG--47" vertex="1">
          <mxGeometry width="60" height="20" as="geometry">
            <mxRectangle width="60" height="20" as="alternateBounds" />
          </mxGeometry>
        </mxCell>
        <mxCell id="zeIqeqDCH-F1ztGzaZG--49" value="" style="shape=tableRow;horizontal=0;startSize=0;swimlaneHead=0;swimlaneBody=0;strokeColor=inherit;top=0;left=0;bottom=0;right=0;collapsible=0;dropTarget=0;fillColor=none;points=[[0,0.5],[1,0.5]];portConstraint=eastwest;" parent="zeIqeqDCH-F1ztGzaZG--44" vertex="1">
          <mxGeometry y="40" width="60" height="20" as="geometry" />
        </mxCell>
        <mxCell id="zeIqeqDCH-F1ztGzaZG--50" value="" style="shape=partialRectangle;html=1;whiteSpace=wrap;connectable=0;strokeColor=inherit;overflow=hidden;fillColor=none;top=0;left=0;bottom=0;right=0;pointerEvents=1;" parent="zeIqeqDCH-F1ztGzaZG--49" vertex="1">
          <mxGeometry width="60" height="20" as="geometry">
            <mxRectangle width="60" height="20" as="alternateBounds" />
          </mxGeometry>
        </mxCell>
        <mxCell id="zeIqeqDCH-F1ztGzaZG--51" value="" style="shape=tableRow;horizontal=0;startSize=0;swimlaneHead=0;swimlaneBody=0;strokeColor=inherit;top=0;left=0;bottom=0;right=0;collapsible=0;dropTarget=0;fillColor=none;points=[[0,0.5],[1,0.5]];portConstraint=eastwest;" parent="zeIqeqDCH-F1ztGzaZG--44" vertex="1">
          <mxGeometry y="60" width="60" height="20" as="geometry" />
        </mxCell>
        <mxCell id="zeIqeqDCH-F1ztGzaZG--52" value="" style="shape=partialRectangle;html=1;whiteSpace=wrap;connectable=0;strokeColor=inherit;overflow=hidden;fillColor=none;top=0;left=0;bottom=0;right=0;pointerEvents=1;" parent="zeIqeqDCH-F1ztGzaZG--51" vertex="1">
          <mxGeometry width="60" height="20" as="geometry">
            <mxRectangle width="60" height="20" as="alternateBounds" />
          </mxGeometry>
        </mxCell>
        <mxCell id="zeIqeqDCH-F1ztGzaZG--53" value="" style="shape=tableRow;horizontal=0;startSize=0;swimlaneHead=0;swimlaneBody=0;strokeColor=inherit;top=0;left=0;bottom=0;right=0;collapsible=0;dropTarget=0;fillColor=none;points=[[0,0.5],[1,0.5]];portConstraint=eastwest;" parent="zeIqeqDCH-F1ztGzaZG--44" vertex="1">
          <mxGeometry y="80" width="60" height="20" as="geometry" />
        </mxCell>
        <mxCell id="zeIqeqDCH-F1ztGzaZG--54" value="" style="shape=partialRectangle;html=1;whiteSpace=wrap;connectable=0;strokeColor=inherit;overflow=hidden;fillColor=none;top=0;left=0;bottom=0;right=0;pointerEvents=1;" parent="zeIqeqDCH-F1ztGzaZG--53" vertex="1">
          <mxGeometry width="60" height="20" as="geometry">
            <mxRectangle width="60" height="20" as="alternateBounds" />
          </mxGeometry>
        </mxCell>
        <mxCell id="zeIqeqDCH-F1ztGzaZG--132" style="rounded=0;orthogonalLoop=1;jettySize=auto;html=1;exitX=0.5;exitY=0;exitDx=0;exitDy=0;strokeWidth=2;startArrow=classic;startFill=1;entryX=0.943;entryY=1.02;entryDx=0;entryDy=0;entryPerimeter=0;" parent="1" source="zeIqeqDCH-F1ztGzaZG--55" target="6" edge="1">
          <mxGeometry relative="1" as="geometry">
            <mxPoint x="811" y="-696" as="targetPoint" />
          </mxGeometry>
        </mxCell>
        <mxCell id="zeIqeqDCH-F1ztGzaZG--55" value="" style="shape=table;startSize=0;container=1;collapsible=0;childLayout=tableLayout;strokeWidth=2;" parent="1" vertex="1">
          <mxGeometry x="780.83" y="-641.5" width="60" height="100" as="geometry" />
        </mxCell>
        <mxCell id="zeIqeqDCH-F1ztGzaZG--56" value="" style="shape=tableRow;horizontal=0;startSize=0;swimlaneHead=0;swimlaneBody=0;strokeColor=inherit;top=0;left=0;bottom=0;right=0;collapsible=0;dropTarget=0;fillColor=none;points=[[0,0.5],[1,0.5]];portConstraint=eastwest;" parent="zeIqeqDCH-F1ztGzaZG--55" vertex="1">
          <mxGeometry width="60" height="20" as="geometry" />
        </mxCell>
        <mxCell id="zeIqeqDCH-F1ztGzaZG--57" value="" style="shape=partialRectangle;html=1;whiteSpace=wrap;connectable=0;strokeColor=inherit;overflow=hidden;fillColor=none;top=0;left=0;bottom=0;right=0;pointerEvents=1;strokeWidth=2;" parent="zeIqeqDCH-F1ztGzaZG--56" vertex="1">
          <mxGeometry width="60" height="20" as="geometry">
            <mxRectangle width="60" height="20" as="alternateBounds" />
          </mxGeometry>
        </mxCell>
        <mxCell id="zeIqeqDCH-F1ztGzaZG--58" value="" style="shape=tableRow;horizontal=0;startSize=0;swimlaneHead=0;swimlaneBody=0;strokeColor=inherit;top=0;left=0;bottom=0;right=0;collapsible=0;dropTarget=0;fillColor=none;points=[[0,0.5],[1,0.5]];portConstraint=eastwest;" parent="zeIqeqDCH-F1ztGzaZG--55" vertex="1">
          <mxGeometry y="20" width="60" height="20" as="geometry" />
        </mxCell>
        <mxCell id="zeIqeqDCH-F1ztGzaZG--59" value="" style="shape=partialRectangle;html=1;whiteSpace=wrap;connectable=0;strokeColor=inherit;overflow=hidden;fillColor=none;top=0;left=0;bottom=0;right=0;pointerEvents=1;" parent="zeIqeqDCH-F1ztGzaZG--58" vertex="1">
          <mxGeometry width="60" height="20" as="geometry">
            <mxRectangle width="60" height="20" as="alternateBounds" />
          </mxGeometry>
        </mxCell>
        <mxCell id="zeIqeqDCH-F1ztGzaZG--60" value="" style="shape=tableRow;horizontal=0;startSize=0;swimlaneHead=0;swimlaneBody=0;strokeColor=inherit;top=0;left=0;bottom=0;right=0;collapsible=0;dropTarget=0;fillColor=none;points=[[0,0.5],[1,0.5]];portConstraint=eastwest;" parent="zeIqeqDCH-F1ztGzaZG--55" vertex="1">
          <mxGeometry y="40" width="60" height="20" as="geometry" />
        </mxCell>
        <mxCell id="zeIqeqDCH-F1ztGzaZG--61" value="" style="shape=partialRectangle;html=1;whiteSpace=wrap;connectable=0;strokeColor=inherit;overflow=hidden;fillColor=none;top=0;left=0;bottom=0;right=0;pointerEvents=1;" parent="zeIqeqDCH-F1ztGzaZG--60" vertex="1">
          <mxGeometry width="60" height="20" as="geometry">
            <mxRectangle width="60" height="20" as="alternateBounds" />
          </mxGeometry>
        </mxCell>
        <mxCell id="zeIqeqDCH-F1ztGzaZG--62" value="" style="shape=tableRow;horizontal=0;startSize=0;swimlaneHead=0;swimlaneBody=0;strokeColor=inherit;top=0;left=0;bottom=0;right=0;collapsible=0;dropTarget=0;fillColor=none;points=[[0,0.5],[1,0.5]];portConstraint=eastwest;" parent="zeIqeqDCH-F1ztGzaZG--55" vertex="1">
          <mxGeometry y="60" width="60" height="20" as="geometry" />
        </mxCell>
        <mxCell id="zeIqeqDCH-F1ztGzaZG--63" value="" style="shape=partialRectangle;html=1;whiteSpace=wrap;connectable=0;strokeColor=inherit;overflow=hidden;fillColor=none;top=0;left=0;bottom=0;right=0;pointerEvents=1;" parent="zeIqeqDCH-F1ztGzaZG--62" vertex="1">
          <mxGeometry width="60" height="20" as="geometry">
            <mxRectangle width="60" height="20" as="alternateBounds" />
          </mxGeometry>
        </mxCell>
        <mxCell id="zeIqeqDCH-F1ztGzaZG--64" value="" style="shape=tableRow;horizontal=0;startSize=0;swimlaneHead=0;swimlaneBody=0;strokeColor=inherit;top=0;left=0;bottom=0;right=0;collapsible=0;dropTarget=0;fillColor=none;points=[[0,0.5],[1,0.5]];portConstraint=eastwest;" parent="zeIqeqDCH-F1ztGzaZG--55" vertex="1">
          <mxGeometry y="80" width="60" height="20" as="geometry" />
        </mxCell>
        <mxCell id="zeIqeqDCH-F1ztGzaZG--65" value="" style="shape=partialRectangle;html=1;whiteSpace=wrap;connectable=0;strokeColor=inherit;overflow=hidden;fillColor=none;top=0;left=0;bottom=0;right=0;pointerEvents=1;" parent="zeIqeqDCH-F1ztGzaZG--64" vertex="1">
          <mxGeometry width="60" height="20" as="geometry">
            <mxRectangle width="60" height="20" as="alternateBounds" />
          </mxGeometry>
        </mxCell>
        <mxCell id="zeIqeqDCH-F1ztGzaZG--105" value="&lt;font style=&quot;font-size: 24px;&quot; face=&quot;宋体&quot;&gt;就绪队列&lt;/font&gt;&lt;div&gt;&lt;font style=&quot;font-size: 24px;&quot; face=&quot;宋体&quot;&gt;（负载均衡）&lt;/font&gt;&lt;/div&gt;" style="text;html=1;align=center;verticalAlign=middle;whiteSpace=wrap;rounded=0;" parent="1" vertex="1">
          <mxGeometry x="436.5" y="-606.5" width="153" height="30" as="geometry" />
        </mxCell>
        <mxCell id="zeIqeqDCH-F1ztGzaZG--106" value="" style="endArrow=classic;html=1;rounded=0;edgeStyle=orthogonalEdgeStyle;curved=1;exitX=-0.023;exitY=0.129;exitDx=0;exitDy=0;exitPerimeter=0;entryX=1;entryY=0.5;entryDx=0;entryDy=0;strokeWidth=2;" parent="1" source="zeIqeqDCH-F1ztGzaZG--33" target="zeIqeqDCH-F1ztGzaZG--31" edge="1">
          <mxGeometry width="50" height="50" relative="1" as="geometry">
            <mxPoint x="297.38" y="-552.5" as="sourcePoint" />
            <mxPoint x="347.38" y="-602.5" as="targetPoint" />
          </mxGeometry>
        </mxCell>
        <mxCell id="zeIqeqDCH-F1ztGzaZG--129" value="" style="endArrow=classic;startArrow=classic;html=1;rounded=0;exitX=0.5;exitY=0;exitDx=0;exitDy=0;strokeWidth=2;" parent="1" source="zeIqeqDCH-F1ztGzaZG--22" edge="1">
          <mxGeometry width="50" height="50" relative="1" as="geometry">
            <mxPoint x="460" y="-620" as="sourcePoint" />
            <mxPoint x="214" y="-680" as="targetPoint" />
          </mxGeometry>
        </mxCell>
        <mxCell id="zeIqeqDCH-F1ztGzaZG--153" value="" style="group" parent="1" vertex="1" connectable="0">
          <mxGeometry x="194.05" y="-800" width="40" height="40" as="geometry" />
        </mxCell>
        <mxCell id="zeIqeqDCH-F1ztGzaZG--154" value="" style="ellipse;whiteSpace=wrap;html=1;aspect=fixed;strokeWidth=2;rotation=0;container=0;" parent="zeIqeqDCH-F1ztGzaZG--153" vertex="1">
          <mxGeometry width="40" height="40" as="geometry" />
        </mxCell>
        <mxCell id="zeIqeqDCH-F1ztGzaZG--155" value="" style="edgeStyle=isometricEdgeStyle;endArrow=none;html=1;rounded=0;curved=1;strokeWidth=2;" parent="zeIqeqDCH-F1ztGzaZG--153" edge="1">
          <mxGeometry width="50" height="100" relative="1" as="geometry">
            <mxPoint x="18.5" y="35.5" as="sourcePoint" />
            <mxPoint x="21.5" y="4.5" as="targetPoint" />
          </mxGeometry>
        </mxCell>
        <mxCell id="zeIqeqDCH-F1ztGzaZG--191" value="" style="ellipse;whiteSpace=wrap;html=1;aspect=fixed;strokeWidth=2;rotation=0;container=0;" parent="1" vertex="1">
          <mxGeometry x="391.67999999999995" y="-900" width="40" height="40" as="geometry" />
        </mxCell>
        <mxCell id="zeIqeqDCH-F1ztGzaZG--192" value="" style="edgeStyle=isometricEdgeStyle;endArrow=none;html=1;rounded=0;curved=1;strokeWidth=2;" parent="1" edge="1">
          <mxGeometry width="50" height="100" relative="1" as="geometry">
            <mxPoint x="410.17999999999995" y="-864.5" as="sourcePoint" />
            <mxPoint x="413.17999999999995" y="-895.5" as="targetPoint" />
          </mxGeometry>
        </mxCell>
        <mxCell id="zeIqeqDCH-F1ztGzaZG--198" value="" style="ellipse;whiteSpace=wrap;html=1;aspect=fixed;strokeWidth=2;rotation=0;container=0;" parent="1" vertex="1">
          <mxGeometry x="591.68" y="-900" width="40" height="40" as="geometry" />
        </mxCell>
        <mxCell id="zeIqeqDCH-F1ztGzaZG--199" value="" style="edgeStyle=isometricEdgeStyle;endArrow=none;html=1;rounded=0;curved=1;strokeWidth=2;" parent="1" edge="1">
          <mxGeometry width="50" height="100" relative="1" as="geometry">
            <mxPoint x="610.18" y="-864.5" as="sourcePoint" />
            <mxPoint x="613.18" y="-895.5" as="targetPoint" />
          </mxGeometry>
        </mxCell>
        <mxCell id="zeIqeqDCH-F1ztGzaZG--202" value="" style="group" parent="1" vertex="1" connectable="0">
          <mxGeometry x="791.04" y="-800" width="40" height="40" as="geometry" />
        </mxCell>
        <mxCell id="zeIqeqDCH-F1ztGzaZG--203" value="" style="ellipse;whiteSpace=wrap;html=1;aspect=fixed;strokeWidth=2;rotation=0;container=0;" parent="zeIqeqDCH-F1ztGzaZG--202" vertex="1">
          <mxGeometry width="40" height="40" as="geometry" />
        </mxCell>
        <mxCell id="zeIqeqDCH-F1ztGzaZG--204" value="" style="edgeStyle=isometricEdgeStyle;endArrow=none;html=1;rounded=0;curved=1;strokeWidth=2;" parent="zeIqeqDCH-F1ztGzaZG--202" edge="1">
          <mxGeometry width="50" height="100" relative="1" as="geometry">
            <mxPoint x="18.5" y="35.5" as="sourcePoint" />
            <mxPoint x="21.5" y="4.5" as="targetPoint" />
          </mxGeometry>
        </mxCell>
        <mxCell id="zeIqeqDCH-F1ztGzaZG--205" value="" style="ellipse;whiteSpace=wrap;html=1;aspect=fixed;strokeWidth=2;rotation=0;container=0;dashed=1;dashPattern=1 1;" parent="1" vertex="1">
          <mxGeometry x="790.8299999999999" y="-900" width="40" height="40" as="geometry" />
        </mxCell>
        <mxCell id="zeIqeqDCH-F1ztGzaZG--206" value="" style="edgeStyle=isometricEdgeStyle;endArrow=none;html=1;rounded=0;curved=1;strokeWidth=2;dashed=1;dashPattern=1 1;" parent="1" edge="1">
          <mxGeometry width="50" height="100" relative="1" as="geometry">
            <mxPoint x="809.3299999999999" y="-864.5" as="sourcePoint" />
            <mxPoint x="812.3299999999999" y="-895.5" as="targetPoint" />
          </mxGeometry>
        </mxCell>
        <mxCell id="zeIqeqDCH-F1ztGzaZG--208" value="" style="endArrow=classic;startArrow=classic;html=1;rounded=0;dashed=1;startWidth=14.620689655172415;endWidth=14.620689655172415;exitX=1;exitY=0.5;exitDx=0;exitDy=0;strokeWidth=2;" parent="1" edge="1">
          <mxGeometry width="100" height="100" relative="1" as="geometry">
            <mxPoint x="234.69000000000005" y="-780" as="sourcePoint" />
            <mxPoint x="390" y="-880" as="targetPoint" />
          </mxGeometry>
        </mxCell>
        <mxCell id="zeIqeqDCH-F1ztGzaZG--209" value="" style="endArrow=classic;startArrow=classic;html=1;rounded=0;dashed=1;startWidth=14.620689655172415;endWidth=14.620689655172415;strokeWidth=2;entryX=1;entryY=0.5;entryDx=0;entryDy=0;" parent="1" target="zeIqeqDCH-F1ztGzaZG--191" edge="1">
          <mxGeometry width="100" height="100" relative="1" as="geometry">
            <mxPoint x="590" y="-880" as="sourcePoint" />
            <mxPoint x="400" y="-870" as="targetPoint" />
          </mxGeometry>
        </mxCell>
        <mxCell id="zeIqeqDCH-F1ztGzaZG--210" style="rounded=0;orthogonalLoop=1;jettySize=auto;html=1;exitX=0.5;exitY=1;exitDx=0;exitDy=0;entryX=0.065;entryY=-0.007;entryDx=0;entryDy=0;entryPerimeter=0;strokeWidth=2;startArrow=classic;startFill=1;" parent="1" source="zeIqeqDCH-F1ztGzaZG--154" target="6" edge="1">
          <mxGeometry relative="1" as="geometry" />
        </mxCell>
        <mxCell id="zeIqeqDCH-F1ztGzaZG--212" style="rounded=0;orthogonalLoop=1;jettySize=auto;html=1;exitX=0.5;exitY=1;exitDx=0;exitDy=0;entryX=0.356;entryY=-0.01;entryDx=0;entryDy=0;entryPerimeter=0;startArrow=classic;startFill=1;strokeWidth=2;" parent="1" source="zeIqeqDCH-F1ztGzaZG--191" target="6" edge="1">
          <mxGeometry relative="1" as="geometry" />
        </mxCell>
        <mxCell id="zeIqeqDCH-F1ztGzaZG--213" style="rounded=0;orthogonalLoop=1;jettySize=auto;html=1;exitX=0.5;exitY=1;exitDx=0;exitDy=0;entryX=0.943;entryY=0.018;entryDx=0;entryDy=0;entryPerimeter=0;strokeWidth=2;startArrow=classic;startFill=1;" parent="1" source="zeIqeqDCH-F1ztGzaZG--203" target="6" edge="1">
          <mxGeometry relative="1" as="geometry" />
        </mxCell>
        <mxCell id="zeIqeqDCH-F1ztGzaZG--237" style="rounded=0;orthogonalLoop=1;jettySize=auto;html=1;exitX=0.5;exitY=0;exitDx=0;exitDy=0;entryX=0.5;entryY=1;entryDx=0;entryDy=0;endArrow=open;endFill=0;strokeWidth=2;shape=flexArrow;width=0;endSize=6.0927999999999995;endWidth=5.962976148095408;fillColor=none;" parent="1" source="zeIqeqDCH-F1ztGzaZG--203" target="zeIqeqDCH-F1ztGzaZG--205" edge="1">
          <mxGeometry relative="1" as="geometry" />
        </mxCell>
        <mxCell id="zeIqeqDCH-F1ztGzaZG--239" value="" style="group" parent="1" vertex="1" connectable="0">
          <mxGeometry x="1090" y="-571.5" width="170" height="330" as="geometry" />
        </mxCell>
        <mxCell id="GP_2m2FubImY15Z5l0kA-208" value="" style="rounded=0;whiteSpace=wrap;html=1;strokeWidth=2;fillColor=none;container=0;" parent="zeIqeqDCH-F1ztGzaZG--239" vertex="1">
          <mxGeometry width="170" height="330" as="geometry" />
        </mxCell>
        <mxCell id="GP_2m2FubImY15Z5l0kA-173" value="&lt;font face=&quot;宋体&quot; style=&quot;font-size: 24px;&quot;&gt;下个任务&lt;/font&gt;" style="text;html=1;align=center;verticalAlign=middle;resizable=0;points=[];autosize=1;container=0;" parent="zeIqeqDCH-F1ztGzaZG--239" vertex="1">
          <mxGeometry x="50" y="81" width="120" height="40" as="geometry" />
        </mxCell>
        <mxCell id="GP_2m2FubImY15Z5l0kA-174" value="" style="endArrow=classic;startArrow=none;html=1;strokeWidth=2;fontFamily=Times New Roman;fontSize=24;rounded=0;shape=flexArrow;endWidth=3.6948297604035307;endSize=5.8994535519125675;startFill=0;width=0.1923076923076923;" parent="zeIqeqDCH-F1ztGzaZG--239" edge="1">
          <mxGeometry width="50" height="50" relative="1" as="geometry">
            <mxPoint x="50" y="150" as="sourcePoint" />
            <mxPoint x="10" y="150" as="targetPoint" />
          </mxGeometry>
        </mxCell>
        <mxCell id="GP_2m2FubImY15Z5l0kA-205" value="&lt;font face=&quot;宋体&quot; style=&quot;font-size: 24px;&quot;&gt;任务切换&lt;/font&gt;" style="text;html=1;align=center;verticalAlign=middle;resizable=0;points=[];autosize=1;container=0;" parent="zeIqeqDCH-F1ztGzaZG--239" vertex="1">
          <mxGeometry x="50" y="130" width="120" height="40" as="geometry" />
        </mxCell>
        <mxCell id="GP_2m2FubImY15Z5l0kA-206" value="" style="endArrow=open;html=1;rounded=0;strokeWidth=2;endFill=0;startArrow=open;startFill=0;strokeColor=#666666;" parent="zeIqeqDCH-F1ztGzaZG--239" edge="1">
          <mxGeometry width="50" height="50" relative="1" as="geometry">
            <mxPoint x="10" y="250" as="sourcePoint" />
            <mxPoint x="50" y="250" as="targetPoint" />
          </mxGeometry>
        </mxCell>
        <mxCell id="GP_2m2FubImY15Z5l0kA-207" value="&lt;font face=&quot;宋体&quot; style=&quot;font-size: 24px;&quot;&gt;控制信号&lt;/font&gt;" style="text;html=1;align=center;verticalAlign=middle;resizable=0;points=[];autosize=1;container=0;" parent="zeIqeqDCH-F1ztGzaZG--239" vertex="1">
          <mxGeometry x="50" y="230" width="120" height="40" as="geometry" />
        </mxCell>
        <mxCell id="O1nhC53ZxYLluGUJJnTU-16" value="" style="endArrow=classic;startArrow=classic;html=1;rounded=0;dashed=1;startWidth=14.620689655172415;endWidth=14.620689655172415;exitX=1;exitY=0.5;exitDx=0;exitDy=0;strokeWidth=2;" parent="zeIqeqDCH-F1ztGzaZG--239" edge="1">
          <mxGeometry width="100" height="100" relative="1" as="geometry">
            <mxPoint x="10" y="300.33" as="sourcePoint" />
            <mxPoint x="50" y="300" as="targetPoint" />
          </mxGeometry>
        </mxCell>
        <mxCell id="O1nhC53ZxYLluGUJJnTU-17" value="&lt;font face=&quot;宋体&quot;&gt;&lt;span style=&quot;font-size: 24px;&quot;&gt;任务通知&lt;/span&gt;&lt;/font&gt;" style="text;html=1;align=center;verticalAlign=middle;resizable=0;points=[];autosize=1;container=0;" parent="zeIqeqDCH-F1ztGzaZG--239" vertex="1">
          <mxGeometry x="50" y="280.5" width="120" height="40" as="geometry" />
        </mxCell>
        <mxCell id="zeIqeqDCH-F1ztGzaZG--222" value="&lt;font face=&quot;宋体&quot; style=&quot;font-size: 24px;&quot;&gt;当前任务&lt;/font&gt;" style="text;html=1;align=center;verticalAlign=middle;resizable=0;points=[];autosize=1;container=0;" parent="zeIqeqDCH-F1ztGzaZG--239" vertex="1">
          <mxGeometry x="50" y="20" width="120" height="40" as="geometry" />
        </mxCell>
        <mxCell id="zeIqeqDCH-F1ztGzaZG--231" value="" style="endArrow=classic;startArrow=classic;html=1;strokeWidth=2;fontFamily=Times New Roman;fontSize=24;rounded=0;" parent="zeIqeqDCH-F1ztGzaZG--239" edge="1">
          <mxGeometry width="50" height="50" relative="1" as="geometry">
            <mxPoint x="50" y="200" as="sourcePoint" />
            <mxPoint x="10" y="200" as="targetPoint" />
          </mxGeometry>
        </mxCell>
        <mxCell id="zeIqeqDCH-F1ztGzaZG--232" value="&lt;font face=&quot;宋体&quot; style=&quot;font-size: 24px;&quot;&gt;数据交互&lt;/font&gt;" style="text;html=1;align=center;verticalAlign=middle;resizable=0;points=[];autosize=1;container=0;" parent="zeIqeqDCH-F1ztGzaZG--239" vertex="1">
          <mxGeometry x="50" y="180" width="120" height="40" as="geometry" />
        </mxCell>
        <mxCell id="zeIqeqDCH-F1ztGzaZG--219" value="" style="ellipse;whiteSpace=wrap;html=1;aspect=fixed;strokeWidth=2;rotation=0;container=0;dashed=1;dashPattern=1 1;" parent="zeIqeqDCH-F1ztGzaZG--239" vertex="1">
          <mxGeometry x="10" y="81" width="40" height="40" as="geometry" />
        </mxCell>
        <mxCell id="zeIqeqDCH-F1ztGzaZG--220" value="" style="edgeStyle=isometricEdgeStyle;endArrow=none;html=1;rounded=0;curved=1;strokeWidth=2;dashed=1;dashPattern=1 1;" parent="zeIqeqDCH-F1ztGzaZG--239" edge="1">
          <mxGeometry width="50" height="100" relative="1" as="geometry">
            <mxPoint x="28.5" y="116.5" as="sourcePoint" />
            <mxPoint x="31.5" y="85.5" as="targetPoint" />
          </mxGeometry>
        </mxCell>
        <mxCell id="zeIqeqDCH-F1ztGzaZG--224" value="" style="ellipse;whiteSpace=wrap;html=1;aspect=fixed;strokeWidth=2;rotation=0;container=0;" parent="zeIqeqDCH-F1ztGzaZG--239" vertex="1">
          <mxGeometry x="10" y="20" width="40" height="40" as="geometry" />
        </mxCell>
        <mxCell id="zeIqeqDCH-F1ztGzaZG--225" value="" style="edgeStyle=isometricEdgeStyle;endArrow=none;html=1;rounded=0;curved=1;strokeWidth=2;" parent="zeIqeqDCH-F1ztGzaZG--239" edge="1">
          <mxGeometry width="50" height="100" relative="1" as="geometry">
            <mxPoint x="28.5" y="55.5" as="sourcePoint" />
            <mxPoint x="31.5" y="24.5" as="targetPoint" />
          </mxGeometry>
        </mxCell>
        <mxCell id="EjGLXUctiUMHXdpn7YRT-6" style="edgeStyle=orthogonalEdgeStyle;rounded=0;orthogonalLoop=1;jettySize=auto;html=1;exitX=0.5;exitY=0;exitDx=0;exitDy=0;entryX=0.625;entryY=1.05;entryDx=0;entryDy=0;entryPerimeter=0;curved=1;strokeWidth=2;" parent="1" source="zeIqeqDCH-F1ztGzaZG--96" target="zeIqeqDCH-F1ztGzaZG--64" edge="1">
          <mxGeometry relative="1" as="geometry" />
        </mxCell>
        <mxCell id="EjGLXUctiUMHXdpn7YRT-7" style="edgeStyle=orthogonalEdgeStyle;rounded=0;orthogonalLoop=1;jettySize=auto;html=1;exitX=0.5;exitY=0;exitDx=0;exitDy=0;entryX=0.594;entryY=1.05;entryDx=0;entryDy=0;entryPerimeter=0;curved=1;strokeWidth=2;" parent="1" source="zeIqeqDCH-F1ztGzaZG--96" target="zeIqeqDCH-F1ztGzaZG--53" edge="1">
          <mxGeometry relative="1" as="geometry" />
        </mxCell>
        <mxCell id="EjGLXUctiUMHXdpn7YRT-8" style="edgeStyle=orthogonalEdgeStyle;rounded=0;orthogonalLoop=1;jettySize=auto;html=1;exitX=0.5;exitY=0;exitDx=0;exitDy=0;entryX=0.5;entryY=1;entryDx=0;entryDy=0;strokeWidth=2;curved=1;" parent="1" source="zeIqeqDCH-F1ztGzaZG--96" target="zeIqeqDCH-F1ztGzaZG--33" edge="1">
          <mxGeometry relative="1" as="geometry" />
        </mxCell>
        <mxCell id="EjGLXUctiUMHXdpn7YRT-9" style="edgeStyle=orthogonalEdgeStyle;rounded=0;orthogonalLoop=1;jettySize=auto;html=1;exitX=0.5;exitY=0;exitDx=0;exitDy=0;entryX=0.462;entryY=1.008;entryDx=0;entryDy=0;entryPerimeter=0;strokeWidth=2;curved=1;" parent="1" source="zeIqeqDCH-F1ztGzaZG--96" target="zeIqeqDCH-F1ztGzaZG--31" edge="1">
          <mxGeometry relative="1" as="geometry" />
        </mxCell>
        <mxCell id="uMoTUhRaHi5si9yIqvEt-6" value="" style="ellipse;whiteSpace=wrap;html=1;aspect=fixed;strokeWidth=2;rotation=0;container=0;dashed=1;dashPattern=1 1;" vertex="1" parent="1">
          <mxGeometry x="591.68" y="-800" width="40" height="40" as="geometry" />
        </mxCell>
        <mxCell id="uMoTUhRaHi5si9yIqvEt-7" value="" style="edgeStyle=isometricEdgeStyle;endArrow=none;html=1;rounded=0;curved=1;strokeWidth=2;dashed=1;dashPattern=1 1;" edge="1" parent="1">
          <mxGeometry width="50" height="100" relative="1" as="geometry">
            <mxPoint x="610.18" y="-764.5" as="sourcePoint" />
            <mxPoint x="613.18" y="-795.5" as="targetPoint" />
          </mxGeometry>
        </mxCell>
        <mxCell id="uMoTUhRaHi5si9yIqvEt-8" style="rounded=0;orthogonalLoop=1;jettySize=auto;html=1;exitX=0.5;exitY=0;exitDx=0;exitDy=0;entryX=0.5;entryY=1;entryDx=0;entryDy=0;endArrow=open;endFill=0;strokeWidth=2;shape=flexArrow;width=0;endSize=6.0927999999999995;endWidth=5.962976148095408;fillColor=none;" edge="1" parent="1">
          <mxGeometry relative="1" as="geometry">
            <mxPoint x="611.53" y="-860" as="sourcePoint" />
            <mxPoint x="611.53" y="-800" as="targetPoint" />
          </mxGeometry>
        </mxCell>
      </root>
    </mxGraphModel>
  </diagram>
</mxfile>
